# xmcd CD database file
#
# Track frame offsets:
#	150
#	27672
#	52820
#	77175
#	106205
#	136967
#	161917
#	190905
#	219310
#	242167
#	271712
#	295482
#
# Disc length: 4359 seconds
#
# Revision: 0
# Processed by: cddbd v1.5.1PL2 Copyright (c) Steve Scherf et al.
# Submitted via: CDex 1.51
#
DISCID=ac11050c
DTITLE=GTS - Greatest Hits and Works [CD2]
DYEAR=2002
DGENRE=House
TTITLE0=Mylin - Fly Away
TTITLE1=Lisa - Move On
TTITLE2=Hal - Decide
TTITLE3=Shinwha - Wild Eyes
TTITLE4=浜崎あゆみ - Boys&Girls
TTITLE5=Boa - Every Heart-ミンナノキモチ-
TTITLE6=Folder 5 - Super Girl
TTITLE7=Da Pump - Stay Together
TTITLE8=Max - 一緒に・・・
TTITLE9=Double - Driving All Night
TTITLE10=Every Little Thing - Looking Back On Your Love
TTITLE11=M-Flo - Come Again
EXTD=YEAR: 2002
EXTT0=
EXTT1=
EXTT2=
EXTT3=
EXTT4=
EXTT5=
EXTT6=
EXTT7=
EXTT8=
EXTT9=
EXTT10=
EXTT11=
PLAYORDER=
